<svg xmlns="http://www.w3.org/2000/svg" width="812.0" height="822.0" viewBox="0 0 812.0 822.0"><rect x="0" y="0" width="100%" height="100%" fill="rgb(250,250,250)"/><text x="24" y="28" font-family="-apple-system,BlinkMacSystemFont,Segoe UI,Helvetica,Arial,sans-serif" font-size="18" fill="rgb(30,41,59)">Empire Top-Level Architecture</text><rect x="468.0" y="42.0" width="105.6" height="70.0" fill="rgb(226,242,226)" stroke="rgb(120,140,160)" stroke-width="1" rx="4"/><rect x="458.0" y="56.0" width="10.0" height="14.0" fill="rgb(226,242,226)" stroke="rgb(120,140,160)" stroke-width="1" rx="2"/><rect x="458.0" y="84.0" width="10.0" height="14.0" fill="rgb(226,242,226)" stroke="rgb(120,140,160)" stroke-width="1" rx="2"/><rect x="626.4" y="42.0" width="105.6" height="70.0" fill="rgb(225,233,242)" stroke="rgb(120,140,160)" stroke-width="1" rx="4"/><rect x="616.4" y="56.0" width="10.0" height="14.0" fill="rgb(225,233,242)" stroke="rgb(120,140,160)" stroke-width="1" rx="2"/><rect x="616.4" y="84.0" width="10.0" height="14.0" fill="rgb(225,233,242)" stroke="rgb(120,140,160)" stroke-width="1" rx="2"/><rect x="468.0" y="147.0" width="105.6" height="70.0" fill="rgb(225,233,242)" stroke="rgb(120,140,160)" stroke-width="1" rx="4"/><rect x="458.0" y="161.0" width="10.0" height="14.0" fill="rgb(225,233,242)" stroke="rgb(120,140,160)" stroke-width="1" rx="2"/><rect x="458.0" y="189.0" width="10.0" height="14.0" fill="rgb(225,233,242)" stroke="rgb(120,140,160)" stroke-width="1" rx="2"/><rect x="626.4" y="147.0" width="105.6" height="70.0" fill="rgb(225,233,242)" stroke="rgb(120,140,160)" stroke-width="1" rx="4"/><rect x="616.4" y="161.0" width="10.0" height="14.0" fill="rgb(225,233,242)" stroke="rgb(120,140,160)" stroke-width="1" rx="2"/><rect x="616.4" y="189.0" width="10.0" height="14.0" fill="rgb(225,233,242)" stroke="rgb(120,140,160)" stroke-width="1" rx="2"/><rect x="547.2" y="252.0" width="105.6" height="70.0" fill="rgb(225,233,242)" stroke="rgb(120,140,160)" stroke-width="1" rx="4"/><rect x="537.2" y="266.0" width="10.0" height="14.0" fill="rgb(225,233,242)" stroke="rgb(120,140,160)" stroke-width="1" rx="2"/><rect x="537.2" y="294.0" width="10.0" height="14.0" fill="rgb(225,233,242)" stroke="rgb(120,140,160)" stroke-width="1" rx="2"/><rect x="468.0" y="357.0" width="105.6" height="70.0" fill="rgb(225,233,242)" stroke="rgb(120,140,160)" stroke-width="1" rx="4"/><rect x="458.0" y="371.0" width="10.0" height="14.0" fill="rgb(225,233,242)" stroke="rgb(120,140,160)" stroke-width="1" rx="2"/><rect x="458.0" y="399.0" width="10.0" height="14.0" fill="rgb(225,233,242)" stroke="rgb(120,140,160)" stroke-width="1" rx="2"/><rect x="626.4" y="357.0" width="105.6" height="70.0" fill="rgb(225,233,242)" stroke="rgb(120,140,160)" stroke-width="1" rx="4"/><rect x="616.4" y="371.0" width="10.0" height="14.0" fill="rgb(225,233,242)" stroke="rgb(120,140,160)" stroke-width="1" rx="2"/><rect x="616.4" y="399.0" width="10.0" height="14.0" fill="rgb(225,233,242)" stroke="rgb(120,140,160)" stroke-width="1" rx="2"/><rect x="547.2" y="462.0" width="105.6" height="70.0" fill="rgb(226,242,226)" stroke="rgb(120,140,160)" stroke-width="1" rx="4"/><rect x="537.2" y="476.0" width="10.0" height="14.0" fill="rgb(226,242,226)" stroke="rgb(120,140,160)" stroke-width="1" rx="2"/><rect x="537.2" y="504.0" width="10.0" height="14.0" fill="rgb(226,242,226)" stroke="rgb(120,140,160)" stroke-width="1" rx="2"/><rect x="547.2" y="567.0" width="105.6" height="70.0" fill="rgb(225,233,242)" stroke="rgb(120,140,160)" stroke-width="1" rx="4"/><rect x="537.2" y="581.0" width="10.0" height="14.0" fill="rgb(225,233,242)" stroke="rgb(120,140,160)" stroke-width="1" rx="2"/><rect x="537.2" y="609.0" width="10.0" height="14.0" fill="rgb(225,233,242)" stroke="rgb(120,140,160)" stroke-width="1" rx="2"/><rect x="547.2" y="672.0" width="105.6" height="70.0" fill="rgb(225,233,242)" stroke="rgb(120,140,160)" stroke-width="1" rx="4"/><rect x="537.2" y="686.0" width="10.0" height="14.0" fill="rgb(225,233,242)" stroke="rgb(120,140,160)" stroke-width="1" rx="2"/><rect x="537.2" y="714.0" width="10.0" height="14.0" fill="rgb(225,233,242)" stroke="rgb(120,140,160)" stroke-width="1" rx="2"/><polygon points="514.8,112.0 526.8,112.0 520.8,122.39230484541326" fill="rgb(0,0,0)"/><polygon points="514.8,357.0 526.8,357.0 520.8,367.39230484541326" fill="rgb(0,0,0)"/><polygon points="514.8,427.0 526.8,427.0 520.8,437.39230484541326" fill="rgb(0,0,0)"/><polygon points="594.0,672.0 606.0,672.0 600.0,682.3923048454133" fill="rgb(0,0,0)"/><polygon points="594.0,252.0 606.0,252.0 600.0,262.39230484541326" fill="rgb(0,0,0)"/><polygon points="594.0,322.0 606.0,322.0 600.0,332.39230484541326" fill="rgb(0,0,0)"/><polygon points="594.0,462.0 606.0,462.0 600.0,472.39230484541326" fill="rgb(0,0,0)"/><polygon points="594.0,532.0 606.0,532.0 600.0,542.3923048454133" fill="rgb(0,0,0)"/><polygon points="673.1999999999999,357.0 685.1999999999999,357.0 679.1999999999999,367.39230484541326" fill="rgb(0,0,0)"/><polygon points="673.1999999999999,427.0 685.1999999999999,427.0 679.1999999999999,437.39230484541326" fill="rgb(0,0,0)"/><polygon points="594.0,567.0 606.0,567.0 600.0,577.3923048454133" fill="rgb(0,0,0)"/><polygon points="594.0,637.0 606.0,637.0 600.0,647.3923048454133" fill="rgb(0,0,0)"/><polygon points="514.8,147.0 526.8,147.0 520.8,157.39230484541326" fill="rgb(0,0,0)"/><polygon points="514.8,217.0 526.8,217.0 520.8,227.39230484541326" fill="rgb(0,0,0)"/><polygon points="673.1999999999999,147.0 685.1999999999999,147.0 679.1999999999999,157.39230484541326" fill="rgb(0,0,0)"/><polygon points="673.1999999999999,217.0 685.1999999999999,217.0 679.1999999999999,227.39230484541326" fill="rgb(0,0,0)"/><text x="520.8" y="81.0" text-anchor="middle" font-family="Menlo,Monaco,Consolas,monospace" font-size="12" fill="rgb(0,128,0)">acceptance</text><text x="679.1999999999999" y="81.0" text-anchor="middle" font-family="Menlo,Monaco,Consolas,monospace" font-size="12" fill="rgb(15,20,30)">architecture</text><text x="520.8" y="186.0" text-anchor="middle" font-family="Menlo,Monaco,Consolas,monospace" font-size="12" fill="rgb(15,20,30)">test</text><text x="679.1999999999999" y="186.0" text-anchor="middle" font-family="Menlo,Monaco,Consolas,monospace" font-size="12" fill="rgb(15,20,30)">ui</text><text x="600.0" y="291.0" text-anchor="middle" font-family="Menlo,Monaco,Consolas,monospace" font-size="12" fill="rgb(15,20,30)">game</text><text x="520.8" y="396.0" text-anchor="middle" font-family="Menlo,Monaco,Consolas,monospace" font-size="12" fill="rgb(15,20,30)">computer</text><text x="679.1999999999999" y="396.0" text-anchor="middle" font-family="Menlo,Monaco,Consolas,monospace" font-size="12" fill="rgb(15,20,30)">player</text><text x="600.0" y="494.0" text-anchor="middle" font-family="Menlo,Monaco,Consolas,monospace" font-size="12" fill="rgb(0,128,0)">game-</text><text x="600.0" y="508.0" text-anchor="middle" font-family="Menlo,Monaco,Consolas,monospace" font-size="12" fill="rgb(0,128,0)">mechanics</text><text x="600.0" y="606.0" text-anchor="middle" font-family="Menlo,Monaco,Consolas,monospace" font-size="12" fill="rgb(15,20,30)">state</text><text x="600.0" y="711.0" text-anchor="middle" font-family="Menlo,Monaco,Consolas,monospace" font-size="12" fill="rgb(15,20,30)">config</text></svg>